<?xml version="1.0" encoding="UTF-8" standalone="no"?>
<!DOCTYPE svg PUBLIC "-//W3C//DTD SVG 1.1//EN"
 "http://www.w3.org/Graphics/SVG/1.1/DTD/svg11.dtd">
<!-- Generated by graphviz version 14.1.1 (20251213.1925)
 -->
<!-- Title: InheritanceTree Pages: 1 -->
<svg width="403pt" height="429pt"
 viewBox="0.00 0.00 403.00 429.00" xmlns="http://www.w3.org/2000/svg" xmlns:xlink="http://www.w3.org/1999/xlink">
<g id="graph0" class="graph" transform="scale(1 1) rotate(0) translate(4 424.5)">
<title>InheritanceTree</title>
<polygon fill="white" stroke="none" points="-4,4 -4,-424.5 399,-424.5 399,4 -4,4"/>
<text xml:space="preserve" text-anchor="middle" x="197.5" y="-7.2" font-family="Times New Roman,serif" font-size="14.00">simple_cache &#45; Inheritance Hierarchy</text>
<!-- SIMPLE_REDIS -->
<g id="node1" class="node">
<title>SIMPLE_REDIS</title>
<path fill="none" stroke="black" d="M126.62,-60.5C126.62,-60.5 40.12,-60.5 40.12,-60.5 34.12,-60.5 28.12,-54.5 28.12,-48.5 28.12,-48.5 28.12,-36.5 28.12,-36.5 28.12,-30.5 34.12,-24.5 40.12,-24.5 40.12,-24.5 126.62,-24.5 126.62,-24.5 132.62,-24.5 138.62,-30.5 138.62,-36.5 138.62,-36.5 138.62,-48.5 138.62,-48.5 138.62,-54.5 132.62,-60.5 126.62,-60.5"/>
<text xml:space="preserve" text-anchor="middle" x="83.38" y="-37.45" font-family="Times New Roman,serif" font-size="14.00">SIMPLE_REDIS</text>
</g>
<!-- SIMPLE_REDIS_CACHE -->
<g id="node2" class="node">
<title>SIMPLE_REDIS_CACHE</title>
<path fill="none" stroke="black" d="M152.88,-132.5C152.88,-132.5 13.88,-132.5 13.88,-132.5 7.88,-132.5 1.88,-126.5 1.88,-120.5 1.88,-120.5 1.88,-108.5 1.88,-108.5 1.88,-102.5 7.88,-96.5 13.88,-96.5 13.88,-96.5 152.88,-96.5 152.88,-96.5 158.88,-96.5 164.88,-102.5 164.88,-108.5 164.88,-108.5 164.88,-120.5 164.88,-120.5 164.88,-126.5 158.88,-132.5 152.88,-132.5"/>
<text xml:space="preserve" text-anchor="middle" x="83.38" y="-109.45" font-family="Times New Roman,serif" font-size="14.00">SIMPLE_REDIS_CACHE</text>
</g>
<!-- SIMPLE_CACHE -->
<g id="node3" class="node">
<title>SIMPLE_CACHE</title>
<path fill="none" stroke="black" d="M130,-204.5C130,-204.5 36.75,-204.5 36.75,-204.5 30.75,-204.5 24.75,-198.5 24.75,-192.5 24.75,-192.5 24.75,-180.5 24.75,-180.5 24.75,-174.5 30.75,-168.5 36.75,-168.5 36.75,-168.5 130,-168.5 130,-168.5 136,-168.5 142,-174.5 142,-180.5 142,-180.5 142,-192.5 142,-192.5 142,-198.5 136,-204.5 130,-204.5"/>
<text xml:space="preserve" text-anchor="middle" x="83.38" y="-181.45" font-family="Times New Roman,serif" font-size="14.00">SIMPLE_CACHE</text>
</g>
<!-- SIMPLE_CACHE_QUICK -->
<g id="node4" class="node">
<title>SIMPLE_CACHE_QUICK</title>
<path fill="none" stroke="black" d="M154.75,-276.5C154.75,-276.5 12,-276.5 12,-276.5 6,-276.5 0,-270.5 0,-264.5 0,-264.5 0,-252.5 0,-252.5 0,-246.5 6,-240.5 12,-240.5 12,-240.5 154.75,-240.5 154.75,-240.5 160.75,-240.5 166.75,-246.5 166.75,-252.5 166.75,-252.5 166.75,-264.5 166.75,-264.5 166.75,-270.5 160.75,-276.5 154.75,-276.5"/>
<text xml:space="preserve" text-anchor="middle" x="83.38" y="-253.45" font-family="Times New Roman,serif" font-size="14.00">SIMPLE_CACHE_QUICK</text>
</g>
<!-- LIB_TESTS -->
<g id="node5" class="node">
<title>LIB_TESTS</title>
<path fill="none" stroke="black" d="M113.5,-348.5C113.5,-348.5 53.25,-348.5 53.25,-348.5 47.25,-348.5 41.25,-342.5 41.25,-336.5 41.25,-336.5 41.25,-324.5 41.25,-324.5 41.25,-318.5 47.25,-312.5 53.25,-312.5 53.25,-312.5 113.5,-312.5 113.5,-312.5 119.5,-312.5 125.5,-318.5 125.5,-324.5 125.5,-324.5 125.5,-336.5 125.5,-336.5 125.5,-342.5 119.5,-348.5 113.5,-348.5"/>
<text xml:space="preserve" text-anchor="middle" x="83.38" y="-325.45" font-family="Times New Roman,serif" font-size="14.00">LIB_TESTS</text>
</g>
<!-- TEST_SET_BASE -->
<g id="node6" class="node">
<title>TEST_SET_BASE</title>
<path fill="none" stroke="black" d="M383,-348.5C383,-348.5 286.75,-348.5 286.75,-348.5 280.75,-348.5 274.75,-342.5 274.75,-336.5 274.75,-336.5 274.75,-324.5 274.75,-324.5 274.75,-318.5 280.75,-312.5 286.75,-312.5 286.75,-312.5 383,-312.5 383,-312.5 389,-312.5 395,-318.5 395,-324.5 395,-324.5 395,-336.5 395,-336.5 395,-342.5 389,-348.5 383,-348.5"/>
<text xml:space="preserve" text-anchor="middle" x="334.88" y="-325.45" font-family="Times New Roman,serif" font-size="14.00">TEST_SET_BASE</text>
</g>
<!-- LIB_TESTS&#45;&gt;TEST_SET_BASE -->
<g id="edge1" class="edge">
<title>LIB_TESTS&#45;&gt;TEST_SET_BASE</title>
<path fill="none" stroke="black" d="M125.75,-330.5C125.75,-330.5 262.88,-330.5 262.88,-330.5"/>
<polygon fill="none" stroke="black" points="262.88,-334 272.88,-330.5 262.88,-327 262.88,-334"/>
</g>
<!-- TEST_APP -->
<g id="node7" class="node">
<title>TEST_APP</title>
<path fill="none" stroke="black" d="M111.25,-420.5C111.25,-420.5 55.5,-420.5 55.5,-420.5 49.5,-420.5 43.5,-414.5 43.5,-408.5 43.5,-408.5 43.5,-396.5 43.5,-396.5 43.5,-390.5 49.5,-384.5 55.5,-384.5 55.5,-384.5 111.25,-384.5 111.25,-384.5 117.25,-384.5 123.25,-390.5 123.25,-396.5 123.25,-396.5 123.25,-408.5 123.25,-408.5 123.25,-414.5 117.25,-420.5 111.25,-420.5"/>
<text xml:space="preserve" text-anchor="middle" x="83.38" y="-397.45" font-family="Times New Roman,serif" font-size="14.00">TEST_APP</text>
</g>
</g>
</svg>
