<?xml version="1.0" encoding="UTF-8" standalone="no"?>
<!DOCTYPE svg PUBLIC "-//W3C//DTD SVG 1.1//EN"
 "http://www.w3.org/Graphics/SVG/1.1/DTD/svg11.dtd">
<!-- Generated by graphviz version 14.1.1 (20251213.1925)
 -->
<!-- Title: Dependencies Pages: 1 -->
<svg width="349pt" height="501pt"
 viewBox="0.00 0.00 349.00 501.00" xmlns="http://www.w3.org/2000/svg" xmlns:xlink="http://www.w3.org/1999/xlink">
<g id="graph0" class="graph" transform="scale(1 1) rotate(0) translate(4 496.5)">
<title>Dependencies</title>
<polygon fill="white" stroke="none" points="-4,4 -4,-496.5 345,-496.5 345,4 -4,4"/>
<text xml:space="preserve" text-anchor="middle" x="170.5" y="-7.2" font-family="Times New Roman,serif" font-size="14.00">simple_cache &#45; Dependencies</text>
<!-- simple_cache -->
<g id="node1" class="node">
<title>simple_cache</title>
<polygon fill="lightblue" stroke="black" points="90.25,-276.5 0,-276.5 0,-240.5 90.25,-240.5 90.25,-276.5"/>
<text xml:space="preserve" text-anchor="middle" x="45.12" y="-253.45" font-family="Times New Roman,serif" font-size="14.00">simple_cache</text>
</g>
<!-- simple_datetime -->
<g id="node2" class="node">
<title>simple_datetime</title>
<polygon fill="lightblue" stroke="black" points="341,-492.5 234.25,-492.5 234.25,-456.5 341,-456.5 341,-492.5"/>
<text xml:space="preserve" text-anchor="middle" x="287.62" y="-469.45" font-family="Times New Roman,serif" font-size="14.00">simple_datetime</text>
</g>
<!-- simple_cache&#45;&gt;simple_datetime -->
<g id="edge1" class="edge">
<title>simple_cache&#45;&gt;simple_datetime</title>
<path fill="none" stroke="black" stroke-dasharray="5,2" d="M23,-276.92C23,-329.15 23,-474.5 23,-474.5 23,-474.5 222.24,-474.5 222.24,-474.5"/>
<polygon fill="black" stroke="black" points="222.24,-478 232.24,-474.5 222.24,-471 222.24,-478"/>
</g>
<!-- simple_logger -->
<g id="node3" class="node">
<title>simple_logger</title>
<polygon fill="lightblue" stroke="black" points="334.62,-420.5 240.62,-420.5 240.62,-384.5 334.62,-384.5 334.62,-420.5"/>
<text xml:space="preserve" text-anchor="middle" x="287.62" y="-397.45" font-family="Times New Roman,serif" font-size="14.00">simple_logger</text>
</g>
<!-- simple_cache&#45;&gt;simple_logger -->
<g id="edge2" class="edge">
<title>simple_cache&#45;&gt;simple_logger</title>
<path fill="none" stroke="black" stroke-dasharray="5,2" d="M45,-276.74C45,-315.49 45,-402.5 45,-402.5 45,-402.5 228.75,-402.5 228.75,-402.5"/>
<polygon fill="black" stroke="black" points="228.75,-406 238.75,-402.5 228.75,-399 228.75,-406"/>
</g>
<!-- simple_mml -->
<g id="node4" class="node">
<title>simple_mml</title>
<polygon fill="lightblue" stroke="black" points="330.5,-348.5 244.75,-348.5 244.75,-312.5 330.5,-312.5 330.5,-348.5"/>
<text xml:space="preserve" text-anchor="middle" x="287.62" y="-325.45" font-family="Times New Roman,serif" font-size="14.00">simple_mml</text>
</g>
<!-- simple_cache&#45;&gt;simple_mml -->
<g id="edge3" class="edge">
<title>simple_cache&#45;&gt;simple_mml</title>
<path fill="none" stroke="black" stroke-dasharray="5,2" d="M68,-276.67C68,-298 68,-330.5 68,-330.5 68,-330.5 232.98,-330.5 232.98,-330.5"/>
<polygon fill="black" stroke="black" points="232.98,-334 242.98,-330.5 232.98,-327 232.98,-334"/>
</g>
<!-- simple_testing -->
<g id="node5" class="node">
<title>simple_testing</title>
<polygon fill="lightblue" stroke="black" points="335.38,-276.5 239.88,-276.5 239.88,-240.5 335.38,-240.5 335.38,-276.5"/>
<text xml:space="preserve" text-anchor="middle" x="287.62" y="-253.45" font-family="Times New Roman,serif" font-size="14.00">simple_testing</text>
</g>
<!-- simple_cache&#45;&gt;simple_testing -->
<g id="edge4" class="edge">
<title>simple_cache&#45;&gt;simple_testing</title>
<path fill="none" stroke="black" stroke-dasharray="5,2" d="M90.74,-258.5C90.74,-258.5 228.21,-258.5 228.21,-258.5"/>
<polygon fill="black" stroke="black" points="228.21,-262 238.21,-258.5 228.21,-255 228.21,-262"/>
</g>
<!-- base -->
<g id="node6" class="node">
<title>base</title>
<polygon fill="lightgray" stroke="black" points="314.62,-204.5 260.62,-204.5 260.62,-168.5 314.62,-168.5 314.62,-204.5"/>
<text xml:space="preserve" text-anchor="middle" x="287.62" y="-181.45" font-family="Times New Roman,serif" font-size="14.00">base</text>
</g>
<!-- simple_cache&#45;&gt;base -->
<g id="edge5" class="edge">
<title>simple_cache&#45;&gt;base</title>
<path fill="none" stroke="black" stroke-dasharray="5,2" d="M68,-240.33C68,-219 68,-186.5 68,-186.5 68,-186.5 248.74,-186.5 248.74,-186.5"/>
<polygon fill="black" stroke="black" points="248.74,-190 258.74,-186.5 248.74,-183 248.74,-190"/>
</g>
<!-- net -->
<g id="node7" class="node">
<title>net</title>
<polygon fill="lightgray" stroke="black" points="314.62,-132.5 260.62,-132.5 260.62,-96.5 314.62,-96.5 314.62,-132.5"/>
<text xml:space="preserve" text-anchor="middle" x="287.62" y="-109.45" font-family="Times New Roman,serif" font-size="14.00">net</text>
</g>
<!-- simple_cache&#45;&gt;net -->
<g id="edge6" class="edge">
<title>simple_cache&#45;&gt;net</title>
<path fill="none" stroke="black" stroke-dasharray="5,2" d="M45,-240.26C45,-201.51 45,-114.5 45,-114.5 45,-114.5 248.75,-114.5 248.75,-114.5"/>
<polygon fill="black" stroke="black" points="248.75,-118 258.75,-114.5 248.75,-111 248.75,-118"/>
</g>
<!-- testing -->
<g id="node8" class="node">
<title>testing</title>
<polygon fill="lightgray" stroke="black" points="314.62,-60.5 260.62,-60.5 260.62,-24.5 314.62,-24.5 314.62,-60.5"/>
<text xml:space="preserve" text-anchor="middle" x="287.62" y="-37.45" font-family="Times New Roman,serif" font-size="14.00">testing</text>
</g>
<!-- simple_cache&#45;&gt;testing -->
<g id="edge7" class="edge">
<title>simple_cache&#45;&gt;testing</title>
<path fill="none" stroke="black" stroke-dasharray="5,2" d="M23,-240.08C23,-187.85 23,-42.5 23,-42.5 23,-42.5 248.79,-42.5 248.79,-42.5"/>
<polygon fill="black" stroke="black" points="248.79,-46 258.79,-42.5 248.79,-39 248.79,-46"/>
</g>
</g>
</svg>
